<?xml version="1.0" standalone="no"?>
<!DOCTYPE svg PUBLIC "-//W3C//DTD SVG 20010904//EN"
 "http://www.w3.org/TR/2001/REC-SVG-20010904/DTD/svg10.dtd">
<svg version="1.0" xmlns="http://www.w3.org/2000/svg"
 width="260.000000pt" height="260.000000pt" viewBox="0 0 260.000000 260.000000"
 preserveAspectRatio="xMidYMid meet">
<metadata>
Created by potrace 1.14, written by Peter Selinger 2001-2017
</metadata>
<g transform="translate(0.000000,260.000000) scale(0.100000,-0.100000)"
fill="#000000" stroke="none">
<path d="M1105 2582 c-3 -3 -13 -7 -23 -8 -20 -3 -82 -16 -97 -20 -16 -4 -59
-15 -72 -18 -7 -1 -16 -5 -19 -9 -4 -4 -15 -7 -23 -7 -9 0 -33 -9 -54 -20 -20
-11 -37 -18 -37 -15 0 6 -152 -75 -171 -91 -8 -8 -19 -14 -23 -14 -25 0 -218
-175 -294 -267 -126 -152 -242 -410 -270 -603 -9 -67 -10 -346 -1 -395 5 -28
12 -66 15 -85 12 -76 119 -351 144 -370 4 -3 9 -12 12 -20 19 -52 183 -244
277 -324 80 -68 269 -183 294 -178 4 1 7 -3 7 -10 0 -6 3 -8 7 -5 3 4 11 3 17
-1 18 -14 126 -50 201 -68 39 -9 79 -18 90 -21 11 -3 94 -7 185 -8 130 -3 186
1 263 15 53 11 102 22 107 25 6 3 20 8 32 10 40 8 163 58 211 87 26 15 51 28
55 28 8 0 109 69 161 110 37 28 119 108 171 166 67 74 178 246 172 267 -1 4 2
7 6 7 4 0 16 24 27 52 10 29 21 58 25 63 10 15 36 102 51 170 7 33 14 67 17
75 2 8 6 92 7 185 2 134 -1 189 -16 260 -29 142 -80 286 -139 384 -16 29 -30
54 -30 56 0 2 -27 40 -60 84 -49 66 -156 180 -220 235 -55 47 -211 144 -234
144 -5 0 -12 4 -15 9 -6 10 -147 71 -178 76 -10 2 -25 6 -33 10 -19 7 -92 24
-153 35 -50 10 -383 13 -392 4z"/>
</g>
</svg>
