<svg id="Layer_2" data-name="Layer 2" xmlns="http://www.w3.org/2000/svg" viewBox="0 0 298.62 298.63"><defs><style>.cls-1{fill:#fff;}</style></defs><path class="cls-1" d="M299.23,139.35a148.25,148.25,0,0,0-23.05-69.94q-3.85-6-8.24-11.63A149.33,149.33,0,0,0,150.31.37a151.13,151.13,0,0,0-19.74,1.34A148.36,148.36,0,0,0,101.9,8.45q-3.25,1.11-6.45,2.37a149.85,149.85,0,0,0-76.57,68,146.13,146.13,0,0,0-7,15A148.31,148.31,0,0,0,1.4,139.35c-.24,3.42-.4,6.86-.4,10.34a150.13,150.13,0,0,0,2.51,27.17,148.11,148.11,0,0,0,15.37,43.72A149.68,149.68,0,0,0,87.08,285a148.69,148.69,0,0,0,43.49,12.71A151.13,151.13,0,0,0,150.31,299a149.51,149.51,0,0,0,34.61-4.08,147.32,147.32,0,0,0,28.62-10,148.92,148.92,0,0,0,54.4-43.35q4.38-5.61,8.24-11.63a148.49,148.49,0,0,0,20.93-53.11,150.13,150.13,0,0,0,2.51-27.17C299.62,146.21,299.46,142.77,299.23,139.35Zm-83.51,10.34a65.6,65.6,0,0,1-131.19,0,66.39,66.39,0,0,1,.82-10.34,65.61,65.61,0,0,1,99.18-45.51l.39.25a65.64,65.64,0,0,1,30,45.26A66.39,66.39,0,0,1,215.72,149.69ZM135.21,22q5.55-4.61,16.39-4.5t16.3,4.82q5.46,4.7,5.38,13.19L173,65.62l-10-.1.13-13.67-23.68-.23-.13,13.67-8.72-.09h-1.29l.29-30.1a20.21,20.21,0,0,1,1-6.28A14.73,14.73,0,0,1,135.21,22Zm117.12,59.1A20.23,20.23,0,0,1,263.52,86a28,28,0,0,1,4.42,4.85c.67.93,1.31,1.92,1.93,3A42.92,42.92,0,0,1,272,98a35.24,35.24,0,0,1,3.36,11.31,30,30,0,0,1-.66,9.46l-6.77-1.64-2.53-.61a17.44,17.44,0,0,0,.66-7,24.5,24.5,0,0,0-2.22-8.31,20.48,20.48,0,0,0-5.23-7.37c-3.16-2.64-7-3.39-11.47-2.2l1,2.2,10,21.94-7.78,3.53-10.91-24q-9.43,6.56-4.09,18.36a32.42,32.42,0,0,0,5.21,8,36.94,36.94,0,0,0,6.58,5.94l-5.32,6.94a35.37,35.37,0,0,1-8.2-7.14,44.73,44.73,0,0,1-6.84-10.87q-6.16-13.57-.41-22.72c2.54-4.07,6.81-7.49,12.88-10.24A25,25,0,0,1,252.33,81.11ZM213.92,35.32a33.78,33.78,0,0,1,13.41,5.88,35.61,35.61,0,0,1,8.69,8,30.54,30.54,0,0,1,4.29,8.46L231,60.73a17.3,17.3,0,0,0-3-6.31,24.61,24.61,0,0,0-6.16-6q-6.6-4.56-11.79-3.73t-9.5,7q-4.39,6.34-3.68,11.68c.48,3.55,2.87,6.83,7.2,9.82a32,32,0,0,0,8.6,4.24,36.89,36.89,0,0,0,8.7,1.73l-1.17,8.93a35.74,35.74,0,0,1-10.71-1.93A44.18,44.18,0,0,1,198,80.39Q177.6,66.23,191.82,45.7a25.22,25.22,0,0,1,10-8.86A20.23,20.23,0,0,1,213.92,35.32ZM67.05,47.67l6.73,8.42a18.75,18.75,0,0,1,.61-11.41,22.18,22.18,0,0,1,7.09-9.44,22.83,22.83,0,0,1,10-4.93,15.9,15.9,0,0,1,9.14.88c.43.18.82.41,1.23.62a18.05,18.05,0,0,1,5.87,4.83,20.53,20.53,0,0,1,4.37,9.82,19.35,19.35,0,0,1-1.74,11.12A29.72,29.72,0,0,1,101.9,68c-.16.13-.29.27-.45.39A37.26,37.26,0,0,1,88.85,75l7.61,9.53-7.83,6.25L59.23,53.92ZM36,86A35.46,35.46,0,0,1,42.8,79.6L48.62,87a35,35,0,0,0-6,5.54c-.37.42-.73.88-1.08,1.35a37.58,37.58,0,0,0-4,6.56q-2.38,5-2.34,8t2.13,4a3.66,3.66,0,0,0,2.64.35,6.65,6.65,0,0,0,2.8-2.09A37,37,0,0,0,46.64,105l2.81-4.66A59.27,59.27,0,0,1,54,93.84a29.26,29.26,0,0,1,3.1-3.33c2.38-2.1,4.65-3.26,6.82-3.46a12.79,12.79,0,0,1,6.81,1.4,13.41,13.41,0,0,1,6.1,5.39,12.75,12.75,0,0,1,1.47,4.37q1,6.62-4.21,17.45Q67.78,128.79,57,135.16l-5.32-7.57a39.1,39.1,0,0,0,7.9-6.54,39.89,39.89,0,0,0,6.75-10.29q2.84-5.9,2.74-8.65a4,4,0,0,0-2.26-3.79,3.38,3.38,0,0,0-2.68-.21,7.42,7.42,0,0,0-2.85,2.26,42.65,42.65,0,0,0-3.7,5.35l-2.84,4.71q-5.49,9.13-10.82,11.68a12.21,12.21,0,0,1-11-.18,11.75,11.75,0,0,1-5.43-5.18A15.39,15.39,0,0,1,26,108.12a33.89,33.89,0,0,1,3.57-11.75c.42-.88.85-1.71,1.28-2.53A44.63,44.63,0,0,1,36,86Zm2.31,93.4-.05,0a2.71,2.71,0,0,1-1.51-2.46c-.2-2,.53-5,1.93-8.79-6.32-.94-10-2.38-9.81-4.9l0-.06c.24-2.57,4.29-3.33,10.84-3.07-1.07-6.3-.85-10.29,1.63-10.85h.06c2.51-.57,4.49,3.05,6.27,9.36,5.66-3,9.52-4,10.82-1.81l0,.06c1.31,2.21-1.52,5.22-7,8.86,4.56,4.47,6.73,7.82,5.06,9.73l-.06,0c-1.69,1.94-5.43.18-10.57-3.88a35.22,35.22,0,0,1-3.12,5.32C41.23,179,39.72,180,38.28,179.36Zm10.06,51.91a15.5,15.5,0,0,1,1.13-8.88,22.82,22.82,0,0,1,6-8A36.31,36.31,0,0,1,62,209.77q3.54-2,9.25-4.67l2.06-1-10.84-12.2,6.6-5.87,29.82,33.55-6.61,5.87L80.29,212q-11.51,4.71-17.18,9.75-3.84,3.4-4.35,6.86a7.93,7.93,0,0,0,2.3,6.62c1.8,2,4.91,3.25,8.51,3.64l-1.43,8.72c-4.7-1-11.06-2.8-15.45-7.76A17.08,17.08,0,0,1,48.34,231.27Zm49.41,27.18c.54.52,1.12,1,1.69,1.43a29.62,29.62,0,0,0,2.46,1.88,32.13,32.13,0,0,0,9.32,4.43q8.61,2.47,13.23,1c3-.95,5-3.25,6.12-6.82.05-.16.12-.28.17-.44v0l2.16-7.5a22,22,0,0,1-2.34,2.38,19.82,19.82,0,0,1-7.18,4.07A21,21,0,0,1,111,258.7a18.49,18.49,0,0,1-8.37-4.77c-.26-.26-.48-.56-.71-.84a14.77,14.77,0,0,1-3.3-7,21.19,21.19,0,0,1,.65-9.74l2.65-9.2,1-3.6,9.63,2.77-3.42,11.89q-2.69,9.34,6.43,12a13.82,13.82,0,0,0,12.54-2.49,22.92,22.92,0,0,0,2.46-2.11,37.33,37.33,0,0,0,7.69-11.86l9.63,2.77-6.72,23.36-1.46,5.06c-1.6,5.59-4.66,9.26-9.14,11-.45.18-.9.36-1.37.5q-7.87,2.31-20.55-1.34a45.58,45.58,0,0,1-6.75-2.52,38.08,38.08,0,0,1-3.71-1.92,32.89,32.89,0,0,1-7.2-5.54l5.32-5.27Zm102.78,3.73a29.76,29.76,0,0,1-13,5.28c-.88.16-1.75.26-2.63.36a37.46,37.46,0,0,1-11.6-.51l2.2,12-9.85,1.8-3.89-21.23-4.6-25.13L167,233l1.95,10.6a18.74,18.74,0,0,1,5.93-9.77,21.94,21.94,0,0,1,10-4.78c.24-.05.46-.13.7-.17a22.65,22.65,0,0,1,11.19.41,15.88,15.88,0,0,1,7.64,5.1,18,18,0,0,1,3.68,8.16,20.64,20.64,0,0,1-.79,10.71,18.32,18.32,0,0,1-4.24,6.67A23,23,0,0,1,200.53,262.18Zm59.63-42.38A44.86,44.86,0,0,1,253.83,231q-15.08,19.77-34.94,4.62a25.09,25.09,0,0,1-8.39-10.36,20.19,20.19,0,0,1-1-12.19A33.45,33.45,0,0,1,216,199.92a35.49,35.49,0,0,1,8.38-8.32,30.33,30.33,0,0,1,8.63-3.9l2.43,9.26a17.4,17.4,0,0,0-6.45,2.72,24.46,24.46,0,0,0-6.26,5.89q-8.33,10.91-.52,19.23l16.07-21.08,6.8,5.18-16,21q10.24,5.22,18.11-5.09a32.23,32.23,0,0,0,4.62-8.4,36.5,36.5,0,0,0,2.12-8.61l8.64,1.4A35.58,35.58,0,0,1,260.16,219.8ZM264,179.32l0,0c-1.44.62-3-.33-4.57-2.5a35.17,35.17,0,0,1-3.13-5.32c-5.14,4.06-8.87,5.82-10.57,3.88l0,0c-1.67-1.91.49-5.26,5.06-9.73-5.45-3.64-8.28-6.65-7-8.86v-.06c1.3-2.18,5.16-1.15,10.82,1.81,1.78-6.31,3.76-9.93,6.27-9.36h.07c2.47.56,2.69,4.55,1.63,10.85a38.59,38.59,0,0,1,5.39.1c3.3.32,5.28,1.22,5.44,3l0,.06c.17,1.87-1.84,3.14-5.46,4.06q-1.9.48-4.35.84c1.4,3.8,2.13,6.8,1.93,8.79A2.7,2.7,0,0,1,264,179.32Z" transform="translate(-1 -0.37)"/><path class="cls-1" d="M193.91,239.26q-3.19-2-8.13-1.06c-.3.06-.57.17-.86.23a16.77,16.77,0,0,0-9.29,5.67c-2.67,3.19-4.06,7.5-4.18,13a16.89,16.89,0,0,0,6.17,1.65,26.67,26.67,0,0,0,7.3-.25c.12,0,.25,0,.37,0q6.72-1.23,10.11-4.63a8.51,8.51,0,0,0,2.56-7.93C197.4,242.76,196.05,240.57,193.91,239.26Z" transform="translate(-1 -0.37)"/><path class="cls-1" d="M163.26,36.24a11.59,11.59,0,0,0-1-5.34,6.87,6.87,0,0,0-3.62-3.13,19.49,19.49,0,0,0-7.12-1.13,19.3,19.3,0,0,0-7.14,1,6.82,6.82,0,0,0-3.68,3.06A11.52,11.52,0,0,0,139.58,36l-.07,6.78,23.68.23Z" transform="translate(-1 -0.37)"/><path class="cls-1" d="M101.9,52.61h0a9,9,0,0,0-1.49-8.19c-2-2.46-4.19-3.75-6.69-3.9s-5.06.84-7.66,2.92a16.76,16.76,0,0,0-6.15,10q-1.27,6.1,2.44,13.39a16.79,16.79,0,0,0,6.22-1.46,26.85,26.85,0,0,0,6.61-3.89Q100.52,57.21,101.9,52.61Z" transform="translate(-1 -0.37)"/><path class="cls-1" d="M184.92,122.05a73.53,73.53,0,0,0-13.28,1.82,33.62,33.62,0,0,0-53.48,15.48,33.1,33.1,0,0,0-1.4,6.32c-6.05,3.61-11.44,7.58-14.86,11.69A18.91,18.91,0,0,0,99,161.93a10.49,10.49,0,0,0-.26,8.19,9.16,9.16,0,0,0,3.19,4,16.81,16.81,0,0,0,8.42,2.73c1,.1,2.09.16,3.2.16s2.45-.06,3.73-.16a81.43,81.43,0,0,0,11-1.69c.69.6,1.41,1.16,2.14,1.69l.2.15a33.63,33.63,0,0,0,53-23.74l1.38-.85c7.28-4.52,12.21-8.88,14.73-13.07q3.19-5.31,1.29-10.24a10,10,0,0,0-5.61-5.54A24.74,24.74,0,0,0,184.92,122.05Zm0,20.75c-.55.39-1.07.78-1.68,1.19a32.19,32.19,0,0,0-1.19-4.64c-.2-.62-.38-1.24-.61-1.83-3.09.47-6.28,1.1-9.5,1.83A156,156,0,0,0,130.57,155a97.09,97.09,0,0,0-11.49,7.54,33.8,33.8,0,0,0,3,5.73c-10,1.66-15.34.63-16-1.13a2.56,2.56,0,0,1,.21-2.11c1.06-2.49,4.41-6,10.63-10.11,0,0,0,0,0,.06a76.79,76.79,0,0,1,13.63-8.2c5.08-2.52,10.94-5.1,17.06-7.44,10.3-3.95,21.29-7.25,30.29-8.56h0a58.72,58.72,0,0,1,7-.76l1.41,0a15.29,15.29,0,0,1,5.83.87c1.12.49,1.3,1,1.36,1.13h0c.58,1.49-.63,4-4.27,7.36A46.75,46.75,0,0,1,184.92,142.8Z" transform="translate(-1 -0.37)"/></svg>