<?xml version="1.0" encoding="utf-8"?>
<!-- Generator: Adobe Illustrator 24.1.2, SVG Export Plug-In . SVG Version: 6.00 Build 0)  -->
<svg version="1.1" id="Layer_1" xmlns="http://www.w3.org/2000/svg" xmlns:xlink="http://www.w3.org/1999/xlink" x="0px" y="0px"
	 viewBox="0 0 60 60" style="enable-background:new 0 0 60 60;" xml:space="preserve">
<style type="text/css">
	.st0{fill:none;stroke:#FFFFFF55;stroke-width:2.8346;stroke-miterlimit:10;}
	.st1{fill:#FFFFFF55;}
</style>
<path class="st0" d="M40.6,2.5h-21c-9.4,0-17,7.6-17,17v21c0,9.4,7.6,17,17,17h21c9.4,0,17-7.6,17-17v-21C57.6,10.2,50,2.5,40.6,2.5
	z"/>
<path class="st1" d="M27.3,40.9c0,0.7-0.6,1.3-1.3,1.3h-5c-0.7,0-1.3-0.6-1.3-1.3V19.1c0-0.7,0.6-1.3,1.3-1.3h5
	c0.7,0,1.3,0.6,1.3,1.3V40.9z"/>
<path class="st1" d="M40.7,40.9c0,0.7-0.6,1.3-1.3,1.3h-5c-0.7,0-1.3-0.6-1.3-1.3V19.1c0-0.7,0.6-1.3,1.3-1.3h5
	c0.7,0,1.3,0.6,1.3,1.3V40.9z"/>
</svg>
