<?xml version="1.0" encoding="utf-8"?>
<!-- Generator: Adobe Illustrator 26.0.3, SVG Export Plug-In . SVG Version: 6.00 Build 0)  -->
<svg version="1.1" id="Layer_2_00000057117380692320873840000014793646237774700450_"
	 xmlns="http://www.w3.org/2000/svg" xmlns:xlink="http://www.w3.org/1999/xlink" x="0px" y="0px" viewBox="0 0 283.1 35.8"
	 style="enable-background:new 0 0 283.1 35.8;" xml:space="preserve">
<style type="text/css">
	.st0{enable-background:new    ;}
</style>
<g class="st0">
	<path d="M2.5,25.8L5,21.3c1.5,1,3.2,1.8,5.1,2.4c1.9,0.6,4.2,0.9,6.7,0.9c2.4,0,4.1-0.2,5-0.7c0.9-0.5,1.4-1.1,1.4-2
		c0-0.6-0.2-1-0.5-1.4c-0.4-0.4-1-0.7-1.8-0.9s-2-0.4-3.5-0.6l-3-0.3c-3.9-0.4-6.7-1.2-8.4-2.6c-1.7-1.4-2.5-3.2-2.5-5.5
		c0-1.5,0.4-2.8,1.3-3.9c0.9-1.2,2.2-2.1,4-2.8c1.8-0.7,4-1,6.7-1c2.6,0,4.9,0.2,6.7,0.7c1.8,0.5,3.4,1.1,4.8,1.9l-2.3,4.7
		c-1.3-0.7-2.7-1.3-4.2-1.7s-3.2-0.6-5.1-0.6c-2,0-3.5,0.2-4.5,0.7c-1,0.5-1.5,1.2-1.5,2c0,0.6,0.2,1.1,0.5,1.4
		c0.3,0.3,0.9,0.6,1.7,0.9c0.8,0.2,2.1,0.5,3.7,0.6l3,0.3c2.9,0.3,5.1,0.8,6.7,1.4c1.6,0.7,2.7,1.5,3.4,2.6c0.6,1,0.9,2.3,0.9,3.7
		c0,2.7-1,4.7-3.1,6.1c-2,1.4-5.3,2.1-9.7,2.1C11,29.6,6.4,28.3,2.5,25.8z"/>
	<path d="M36.1,3.3h5.5v6c1-2.1,2.4-3.6,4.2-4.7c1.8-1.1,3.9-1.6,6.3-1.6c2.4,0,4.4,0.4,6,1.3c1.6,0.9,2.9,2.1,3.6,3.5
		c0.8,1.5,1.2,3.1,1.2,4.8c0,2.1-0.5,4-1.5,5.7c-1,1.7-2.5,3.1-4.6,4.2c-2.1,1.1-4.6,1.6-7.6,1.6c-2.6,0-5.2-0.5-7.7-1.5v6.7h-5.5
		V3.3z M44.8,18.3c1.4,0.4,2.8,0.6,4.2,0.6c2.5,0,4.5-0.5,6-1.5c1.5-1,2.2-2.4,2.2-4c0-1.7-0.5-3.1-1.5-4c-1-0.9-2.5-1.4-4.3-1.4
		C49,8,47,8.7,45.2,10.2s-3,3.7-3.6,6.6C42.4,17.4,43.5,17.9,44.8,18.3z"/>
	<path d="M67.3,12.6c0-3.1,1-5.5,3-7.3c2-1.7,5-2.6,9-2.6c4,0,7,0.9,9,2.6c2,1.7,3,4.1,3,7.3v16.6h-5.5v-7.5H72.9v7.5h-5.5V12.6z
		 M75.5,8.4c-1,0.4-1.6,1-2,1.7s-0.6,1.7-0.6,2.9v3.7h13.1V13c0-1.2-0.2-2.2-0.6-2.9c-0.4-0.7-1.1-1.3-2-1.7c-1-0.4-2.3-0.6-3.9-0.6
		C77.7,7.8,76.4,8,75.5,8.4z"/>
	<path d="M104.9,9.8c-1.4,1.3-2.1,3.4-2.1,6.2c0,2.8,0.7,5,2,6.5c1.3,1.5,3.5,2.2,6.4,2.2c1.8,0,3.5-0.3,5.2-0.8
		c1.7-0.5,3.2-1.2,4.5-2l2.3,4.4c-1.5,1-3.3,1.8-5.5,2.5s-4.5,1-7,1C101.5,29.8,97,25.2,97,16c0-2.8,0.6-5.2,1.7-7.2s2.8-3.5,5-4.5
		c2.2-1,4.8-1.5,7.9-1.5c2.6,0,4.8,0.3,6.5,0.9s3.2,1.4,4.6,2.5l-3.3,4.3c-0.8-0.8-1.9-1.4-3.4-1.9s-3-0.8-4.7-0.8
		C108.5,7.8,106.3,8.4,104.9,9.8z"/>
	<path d="M133,13.8h14.6v4.7h-14.6c0.8,4.2,3.5,6.2,8.3,6.2c1.8,0,3.5-0.3,5.2-0.8c1.7-0.5,3.2-1.2,4.5-2l2.3,4.3
		c-1.5,1-3.3,1.8-5.5,2.5s-4.5,1-7,1c-9.2,0-13.7-4.6-13.7-13.8c0-2.8,0.6-5.2,1.7-7.2s2.8-3.5,5-4.5c2.2-1,4.8-1.5,7.9-1.5
		c2.6,0,4.8,0.3,6.5,0.9c1.7,0.6,3.2,1.4,4.6,2.5l-3.3,4.2c-0.8-0.8-1.9-1.4-3.4-1.9c-1.4-0.5-3-0.8-4.7-0.8
		C136.6,7.6,133.7,9.7,133,13.8z"/>
</g>
<g class="st0">
	<path d="M163.5,3.3h24.8v4.9h-10c-1.5,4.3-2.3,7.9-2.3,10.7c0,1.9,0.4,3.3,1.2,4.3c0.8,1,2,1.5,3.6,1.5c1.5,0,2.9-0.5,4.4-1.4
		l2.3,4.1c-2.1,1.6-4.7,2.4-7.8,2.4c-2,0-3.7-0.5-5.1-1.4c-1.4-0.9-2.5-2.1-3.3-3.7s-1.1-3.4-1.1-5.4c0-1.5,0.2-2.9,0.5-4.4
		s0.8-3.3,1.5-5.5l0.4-1.2h-9V3.3z"/>
	<path d="M196.3,29c-1.9-0.5-3.5-1.1-4.7-1.8l2.6-4.6c2.6,1.4,5.4,2,8.3,2c3.3,0,5.7-0.5,7.2-1.5c1.5-1,2.2-2.6,2.2-4.8V14
		c-0.9,2-2.2,3.7-4.1,4.9c-1.8,1.2-4,1.8-6.6,1.8c-2,0-3.7-0.4-5.2-1.3c-1.5-0.8-2.6-2-3.3-3.5c-0.8-1.5-1.1-3.3-1.1-5.3V3.3h5.5
		v6.8c0,3.6,1.7,5.4,5.2,5.4c2.5,0,4.6-1.1,6.3-3.2c1.7-2.2,2.8-5.1,3.3-9h5.5v16.3c0,3.5-1.3,6.1-3.8,7.7
		c-2.5,1.6-6.3,2.4-11.1,2.4C200.3,29.7,198.3,29.5,196.3,29z"/>
	<path d="M224.7,3.3h5.5v6c1-2.1,2.4-3.6,4.2-4.7c1.8-1.1,3.9-1.6,6.3-1.6c2.4,0,4.4,0.4,6,1.3c1.6,0.9,2.9,2.1,3.6,3.5
		c0.8,1.5,1.2,3.1,1.2,4.8c0,2.1-0.5,4-1.5,5.7c-1,1.7-2.5,3.1-4.6,4.2c-2.1,1.1-4.6,1.6-7.6,1.6c-2.6,0-5.2-0.5-7.7-1.5v6.7h-5.5
		V3.3z M233.4,18.3c1.4,0.4,2.8,0.6,4.2,0.6c2.5,0,4.5-0.5,6-1.5c1.5-1,2.2-2.4,2.2-4c0-1.7-0.5-3.1-1.5-4c-1-0.9-2.5-1.4-4.3-1.4
		c-2.3,0-4.3,0.7-6.1,2.2s-3,3.7-3.6,6.6C231,17.4,232.1,17.9,233.4,18.3z"/>
	<path d="M260.8,13.8h14.6v4.7h-14.6c0.8,4.2,3.5,6.2,8.3,6.2c1.8,0,3.5-0.3,5.2-0.8c1.7-0.5,3.2-1.2,4.5-2l2.3,4.3
		c-1.5,1-3.3,1.8-5.5,2.5c-2.1,0.6-4.5,1-7,1c-9.2,0-13.7-4.6-13.7-13.8c0-2.8,0.6-5.2,1.7-7.2s2.8-3.5,5-4.5c2.2-1,4.8-1.5,7.9-1.5
		c2.6,0,4.8,0.3,6.5,0.9s3.2,1.4,4.6,2.5l-3.3,4.2c-0.8-0.8-1.9-1.4-3.4-1.9c-1.4-0.5-3-0.8-4.7-0.8C264.4,7.6,261.5,9.7,260.8,13.8
		z"/>
</g>
</svg>
